<?xml version="1.0" encoding="UTF-8"?>
<svg id="Layer_2" data-name="Layer 2" xmlns="http://www.w3.org/2000/svg" viewBox="0 0 288.04 321.78">
  <defs>
    <style>
      .cls-1 {
        fill: #fff;
      }

      .cls-2 {
        fill: #bebebe;
      }

      .cls-3 {
        fill: #a4ac96;
      }
    </style>
  </defs>
  <g id="Layer_1-2" data-name="Layer 1">
    <g>
      <path class="cls-3" d="M285.81,182.9c3.44-3,1.97,7.21,1.6,8.59-16.48,66.95-87.06,111.59-154.09,103.79-60.65-5.01-113.64-52.12-128.6-110.5-12.68-52.95.07-107.76,39.64-146.04,55.58-53.47,146.97-50.78,201.45,3.02,9.01,8.93,15.16,17.71,21.6,29.39,1.73,3.15,3.51,6.77,4.88,9.87.72,1.64,1.29,3.19,1,3.82v.02c-.22.47-.98.32-2.04-.31-6.48-4.15-10.49-11.7-15.61-17.37-30.27-35.96-76.64-57.55-123.9-50.5-45,6.02-85.11,38.02-99.07,81.46-24.29,68.66,16.21,146.84,86.41,165.66,9.73,1.97,19.65,1.45,26.81-5.59,21.68-20.98,12.9-66.61-7.41-86.95-7.32-6.72-16.03-3.65-24.87-4.35-12.96-.51-22.95-11.67-28.98-22.25-1.31-2.36-2.46-4.86-3.94-7.12-1.17-1.84-2.91-3.66-3.58-5.38-2.47-6.65,11-8.36,15.37-9.02,6.42-.78,11.67-.44,17.54,1.26,11.8,3.46,22.13,12.13,26.84,23.54,1.81,4.22,2.27,8.76,3.55,13.16,1.17,4.19,3.68,7.78,6.09,11.34.75.94,2.43,4.11,3.14,3.37.54-5.65-.66-14.93-.76-21.67-.45-5.38.42-9.84-.83-14.99-3.28-13.55-17.63-21.75-20.24-35.77-1.74-8.82.52-17.98,4.2-26.02,2.24-5.33,6.13-9.66,8.76-14.76,3.66-8.78,6.62-9.28,13.1-2.34,6.36,6.52,11.4,13.84,15.49,22.11,13.73,26.55-16.51,38.53-16.58,66-.38,6.5.19,13.12,1.15,19.57.45,2.96,1.02,5.92,1.64,8.85.55,2.71,1.57,6.4,3.22,1.35,2.58-7.42,3.96-15.01,4.86-22.82,2.04-12.58,7.75-22.31,19.64-27.3,4.62-2.13,19.04-7.46,22.67-3.66,2.07,2.77-1.94,9.81-2.56,13.12-1.91,6.17-3.82,11.74-7.79,16.52-10.08,12.77-22.78,6.61-29.68,17.27-5.34,8.93-5.26,20.03-3.47,30.04.96,5.27,2.5,10.36,3.37,15.65,1.86,12.71,1.55,25.85-1.81,38.28-1.7,7.57-9.01,15.45,4.46,15.15,48.62-2.41,89.83-34.86,111.61-77.01,1.83-3.4,3.46-7.67,5.72-10.48ZM183.74,142.86c.95-1.18,2.9-3.56,2.78-3.61,0-.03-.01-.05-.03-.05-.09-.01-.39.19-.85.55-5.15,4.37-9.9,9.37-13.77,14.92-1.22,1.81-2.89,4.14-3.24,6.21v.02c.17.79,1.71-1.45,2.58-2.47,1.75-2.18,3.58-4.45,5.74-7.14,2.32-2.88,4.53-5.62,6.79-8.43ZM149.32,126.6c.19-7.07-.24-14.12-.31-21.29-.04-2.94,0-5.89.05-8.83.04-1.38.09-2.97,0-4.28-.05-.73-.13-1.15-.22-1.15-.32.32-.37,2.07-.44,2.87-.13,2.97-.22,6-.36,8.98-.31,7.98-.44,15.83.14,23.83.1.78.2,2.37.63,2.61h.01c.39-.31.45-1.94.5-2.74ZM133.02,160.3c.04-.57-1.11-1.78-1.71-2.4-7.83-7.84-17.1-14.04-27.46-18.24-.71-.27-2.16-.9-2.55-.76-.06.09.29.39.94.81,2.47,1.57,5.26,3.03,7.82,4.53,3.92,2.25,7.65,4.82,11.29,7.53,2.54,1.84,4.9,3.83,7.3,5.87.8.63,3.67,3.14,4.36,2.67h.01Z"/>
      <path class="cls-2" d="M186.52,139.25c.12.05-1.83,2.43-2.78,3.61-2.26,2.81-4.47,5.55-6.79,8.43-2.16,2.69-3.99,4.96-5.74,7.14-.87,1.02-2.41,3.26-2.58,2.47v-.02c.35-2.07,2.02-4.4,3.24-6.21,3.87-5.55,8.62-10.55,13.77-14.92.46-.36.76-.56.85-.55.02,0,.03.02.03.05Z"/>
      <path class="cls-2" d="M149.01,105.31c.07,7.17.5,14.22.31,21.29-.05.8-.11,2.43-.5,2.74h-.01c-.43-.24-.53-1.83-.63-2.61-.58-8-.45-15.85-.14-23.83.14-2.98.23-6.01.36-8.98.07-.8.12-2.55.44-2.87.09,0,.17.42.22,1.15.09,1.31.04,2.9,0,4.28-.06,2.94-.09,5.89-.05,8.83Z"/>
      <path class="cls-2" d="M131.31,157.9c.6.62,1.75,1.83,1.71,2.4h-.01c-.69.48-3.56-2.03-4.36-2.66-2.4-2.04-4.76-4.03-7.3-5.87-3.64-2.71-7.37-5.28-11.29-7.53-2.56-1.5-5.35-2.96-7.82-4.53-.65-.42-1-.72-.94-.81.39-.14,1.84.49,2.55.76,10.36,4.2,19.63,10.4,27.46,18.24Z"/>
      <path class="cls-3" d="M192.27,300.03c.03.49-.54,1.23-1.46,1.71-28.91,13.98-89.79,9.71-115.82-9.08-.67-.59-1.36-1.27-1.37-1.66-.01-.7,1.48-.36,2.44-.17,32.95,10.95,65.02,17.46,99.92,11.09,3.76-.75,9.29-1.86,12.88-2.28.96-.04,3.33-.57,3.42.35v.03Z"/>
      <path class="cls-3" d="M91.5,312.22c-2.55-1.22-5.72-2.96-8.22-4.24-1.7-.89-1.28-1.72.92-1.34,1.63.31,3.84.96,5.47,1.45,22.36,7.56,46.2,9.94,69.75,8.6,2.19-.02,2.76.92.5,1.73-19.66,7.3-49.28,1.51-68.37-6.18l-.05-.02Z"/>
      <path class="cls-3" d="M204.71,97.74c10.04,0,10.05,15.86-.1,15.61-9.57-.24-10.25-15.61.1-15.61Z"/>
      <path class="cls-3" d="M197.32,51.52c1.33.05,3.91,1.29,4.88,2.21,6.49,6.17-1.99,16.89-9.78,10.87-5.69-4.4-1.6-13.33,4.9-13.08Z"/>
      <path class="cls-3" d="M213.81,72.93c9.2-1.57,12.04,10.18,5.18,13.93-3.72,2.04-7.14.26-9.46-2.9-2.76-3.76-.26-10.26,4.28-11.03Z"/>
      <path class="cls-1" d="M132.94,160.37c-.61.1-1.07-.14-1.59-.42-2.12-1.12-5.4-4.63-7.56-6.3-2.76-2.13-5.95-4.55-8.82-6.49-4.44-3-9.35-5.26-13.76-8.3,12.41,4.3,23.11,11.66,31.73,21.51Z"/>
      <path class="cls-1" d="M148.98,129.37c-.54-.17-.68-1.88-.72-2.37-.68-9.01-.57-17.39-.06-26.31.18-3.18.13-6.42.43-9.61.75.19.58.54.57,1.09-.09,4.33-.29,8.63-.23,12.97.1,6.52.47,12.9.4,19.3-.02,1.69-.07,3.28-.38,4.94Z"/>
      <path class="cls-1" d="M169.04,161.1c-.82,0-.11-1.28.04-1.6,1.79-3.73,4.88-7.56,7.42-10.81,3.27-3.13,6.21-6.82,10.04-9.47l-17.51,21.88Z"/>
    </g>
  </g>
</svg>